<svg width="402" height="448" viewBox="0 0 402 448" fill="none" xmlns="http://www.w3.org/2000/svg">
<path fill-rule="evenodd" clip-rule="evenodd" d="M185.673 0.323075C177.794 1.26407 162.882 4.09807 157.217 5.73307C98.7578 22.5951 56.0728 69.0431 43.5148 129.457C41.3548 139.847 41.2558 142.734 40.7238 210.73L40.1728 281.23L37.7918 285.73C36.4828 288.205 28.3138 300.405 19.6398 312.841C10.9658 325.277 3.03681 336.977 2.02081 338.841C-0.86919 344.141 -0.606188 359.758 2.46881 365.525C5.99781 372.142 11.2938 377.397 17.5118 380.45L23.1728 383.23L72.7428 383.515L122.313 383.8L123.593 389.015C125.453 396.588 131.826 409.221 137.68 416.937C147.24 429.538 163.985 440.594 180.673 445.323C189.613 447.857 211.436 447.88 220.673 445.367C248.094 437.906 271.154 415.128 277.721 389.015L279.033 383.8L328.603 383.515L378.173 383.23L383.834 380.45C390.052 377.397 395.348 372.142 398.877 365.525C401.952 359.758 402.215 344.141 399.325 338.841C398.309 336.977 390.38 325.277 381.706 312.841C373.032 300.405 364.863 288.205 363.554 285.73L361.173 281.23L360.57 210.23C359.899 131.378 359.965 132.199 352.545 109.784C334.275 54.5981 288.468 14.1871 231.173 2.71008C221.491 0.771076 194.004 -0.670925 185.673 0.323075ZM227.673 34.6241C260.544 42.1181 288.654 61.3781 307.37 89.2301C315.488 101.312 321.945 116.458 325.914 132.73C327.877 140.776 328.023 145.053 328.651 212.73C329.367 289.947 329.197 287.584 334.934 299.891C336.302 302.828 344.613 315.58 353.402 328.23L369.382 351.23L285.027 351.486C238.632 351.626 162.714 351.626 116.319 351.486L31.9638 351.23L47.9438 328.23C56.7328 315.58 65.0438 302.828 66.4118 299.891C72.1488 287.584 71.9788 289.947 72.6948 212.73C73.3228 145.053 73.4688 140.776 75.4318 132.73C83.6698 98.9531 102.386 71.7061 130.173 53.0331C145.507 42.7291 167.693 34.5511 186.173 32.3921C194.823 31.3811 219.197 32.6921 227.673 34.6241ZM245.231 385.48C243.413 390.333 237.589 398.48 232.783 402.891C213.533 420.56 185.653 419.895 167.08 401.323C162.084 396.327 155.673 386.739 155.673 384.263C155.673 383.97 175.971 383.73 200.78 383.73C243.322 383.73 245.85 383.83 245.231 385.48Z" fill="black"/>
</svg>
