<svg width="405" height="469" viewBox="0 0 405 469" fill="none" xmlns="http://www.w3.org/2000/svg">
<path fill-rule="evenodd" clip-rule="evenodd" d="M191.455 0.204037C157.702 3.55004 131.165 13.397 106.638 31.678C77.3021 53.544 55.9361 85.429 46.8961 120.832C42.3851 138.502 41.9951 146.134 41.9751 217.273L41.9551 284.445L22.4571 314.111C0.273142 347.866 -0.501856 349.602 0.133144 364.132C0.492144 372.327 0.954141 374.216 4.22214 380.828C10.3421 393.211 21.9781 401.951 35.8461 404.581C43.5981 406.051 360.524 405.982 368.521 404.509C383.991 401.659 396.815 390.714 402.118 375.835C405.043 367.628 404.969 355.098 401.949 347.191C400.693 343.904 391.316 328.696 380.823 312.93L361.955 284.579L361.935 217.34C361.915 146.129 361.526 138.505 357.014 120.832C349.654 92.006 336.297 68.808 314.523 47.034C289.513 22.024 261.503 7.57304 227.455 2.11404C217.932 0.588037 198.164 -0.461963 191.455 0.204037ZM141.955 427.229C141.955 427.574 143.325 430.639 144.999 434.04C151.064 446.359 161.256 456.227 174.455 462.559C184.778 467.512 191.352 469.009 202.455 468.935C221.669 468.807 238.469 460.856 251.12 445.903C255.047 441.262 261.955 429.356 261.955 427.229C261.955 426.884 234.955 426.602 201.955 426.602C168.955 426.602 141.955 426.884 141.955 427.229Z" fill="black"/>
</svg>
