<svg width="19" height="22" viewBox="0 0 19 22" fill="none" xmlns="http://www.w3.org/2000/svg">
<path d="M14.8758 19.9887V14.6583C14.275 14.4489 13.7542 14.0578 13.3857 13.5391C13.0172 13.0205 12.8192 12.4 12.8192 11.7638C12.8192 11.1275 13.0172 10.507 13.3857 9.98837C13.7542 9.46971 14.275 9.07858 14.8758 8.86923V1.48024C14.8758 1.20753 14.9841 0.945988 15.177 0.753154C15.3698 0.56032 15.6314 0.451987 15.9041 0.451987C16.1768 0.451987 16.4383 0.56032 16.6311 0.753154C16.824 0.945988 16.9323 1.20753 16.9323 1.48024V8.86923C17.5331 9.07858 18.0539 9.46971 18.4224 9.98837C18.7909 10.507 18.9889 11.1275 18.9889 11.7638C18.9889 12.4 18.7909 13.0205 18.4224 13.5391C18.0539 14.0578 17.5331 14.4489 16.9323 14.6583V19.9887C16.9323 20.2614 16.824 20.523 16.6311 20.7158C16.4383 20.9086 16.1768 21.017 15.9041 21.017C15.6314 21.017 15.3698 20.9086 15.177 20.7158C14.9841 20.523 14.8758 20.2614 14.8758 19.9887ZM8.70632 19.9887V6.43228C8.02026 6.18972 7.44203 5.71244 7.07384 5.08478C6.70565 4.45713 6.5712 3.71952 6.69425 3.00232C6.8173 2.28512 7.18993 1.63451 7.74629 1.16548C8.30264 0.696456 9.00689 0.439209 9.73457 0.439209C10.4622 0.439209 11.1665 0.696456 11.7229 1.16548C12.2792 1.63451 12.6518 2.28512 12.7749 3.00232C12.8979 3.71952 12.7635 4.45713 12.3953 5.08478C12.0271 5.71244 11.4489 6.18972 10.7628 6.43228V19.9887C10.7628 20.2614 10.6545 20.523 10.4617 20.7158C10.2688 20.9086 10.0073 21.017 9.73457 21.017C9.46186 21.017 9.20032 20.9086 9.00749 20.7158C8.81465 20.523 8.70632 20.2614 8.70632 19.9887ZM2.53683 19.9887V18.7713C1.93613 18.5616 1.41551 18.1704 1.04713 17.6516C0.678742 17.1329 0.480835 16.5125 0.480835 15.8762C0.480835 15.24 0.678742 14.6195 1.04713 14.1008C1.41551 13.5821 1.93613 13.1908 2.53683 12.9812V1.48024C2.53683 1.20753 2.64516 0.945988 2.838 0.753154C3.03083 0.56032 3.29237 0.451987 3.56508 0.451987C3.83779 0.451987 4.09933 0.56032 4.29216 0.753154C4.48499 0.945988 4.59333 1.20753 4.59333 1.48024V12.9812C5.19403 13.1908 5.71464 13.5821 6.08303 14.1008C6.45141 14.6195 6.64932 15.24 6.64932 15.8762C6.64932 16.5125 6.45141 17.1329 6.08303 17.6516C5.71464 18.1704 5.19403 18.5616 4.59333 18.7713V19.9887C4.59333 20.2614 4.48499 20.523 4.29216 20.7158C4.09933 20.9086 3.83779 21.017 3.56508 21.017C3.29237 21.017 3.03083 20.9086 2.838 20.7158C2.64516 20.523 2.53683 20.2614 2.53683 19.9887Z" fill="white"/>
</svg>
