<svg width="512" height="512" viewBox="0 0 512 512" fill="none" xmlns="http://www.w3.org/2000/svg">
<path fill-rule="evenodd" clip-rule="evenodd" d="M244.141 1.16923C231.186 4.81623 234.78 1.48722 119.58 116.537C59.7419 176.297 9.46287 227.169 7.84787 229.586C-4.53913 248.124 -2.04613 272.929 13.7959 288.771C22.9639 297.939 34.6699 302.691 48.0859 302.691H54.8759V382.642C54.8759 436.767 55.2299 464.304 55.9729 467.892C59.7479 486.126 74.4989 502.596 92.6859 508.879C99.3199 511.172 99.7839 511.191 148.052 511.191C195.654 511.191 196.789 511.146 199.49 509.129C201.009 507.995 203.18 505.825 204.314 504.307C206.336 501.6 206.386 500.256 206.876 434.789L207.376 368.031L210.412 363.111C214.195 356.98 221.921 352.078 229.234 351.169C232.062 350.818 246.076 350.679 260.376 350.861L286.376 351.191L291.63 354.102C296.638 356.877 299.872 360.182 302.97 365.691C304.124 367.743 304.466 380.128 304.876 434.869C305.366 500.256 305.416 501.6 307.438 504.307C308.572 505.825 310.743 507.995 312.262 509.129C314.963 511.146 316.098 511.191 363.7 511.191C411.968 511.191 412.432 511.172 419.066 508.879C437.253 502.596 452.004 486.126 455.779 467.892C456.522 464.304 456.876 436.767 456.876 382.642V302.691H463.666C487.693 302.691 507.121 286.398 511.064 262.941C512.622 253.677 511.117 243.851 506.739 234.691C503.874 228.697 495.176 219.723 395.004 119.404C335.259 59.5712 284.253 9.24523 281.657 7.56923C279.062 5.89423 274.562 3.60823 271.657 2.49023C264.711 -0.183774 251.242 -0.830774 244.141 1.16923Z" fill="black"/>
</svg>
