<svg width="511" height="511" viewBox="0 0 511 511" fill="none" xmlns="http://www.w3.org/2000/svg">
<path fill-rule="evenodd" clip-rule="evenodd" d="M238.568 2.25239C235.359 3.59339 231.084 5.83939 229.068 7.24239C227.052 8.64539 176.509 58.7424 116.749 118.569C29.0624 206.354 7.59238 228.355 5.49038 232.578C-4.13862 251.929 -0.942623 273.159 13.8234 287.925C22.9914 297.093 34.6974 301.845 48.1134 301.845H54.9034V381.796C54.9034 435.921 55.2574 463.458 56.0004 467.046C59.7754 485.28 74.5264 501.75 92.7134 508.033C99.3474 510.326 99.8114 510.345 148.079 510.345C195.681 510.345 196.816 510.3 199.517 508.283C201.036 507.149 203.207 504.979 204.341 503.461C206.363 500.754 206.413 499.41 206.903 433.943L207.403 367.185L210.439 362.265C214.222 356.134 221.948 351.232 229.261 350.323C232.089 349.972 246.103 349.833 260.403 350.015L286.403 350.345L291.657 353.256C296.665 356.031 299.899 359.336 302.997 364.845C304.151 366.897 304.493 379.282 304.903 434.023C305.393 499.41 305.443 500.754 307.465 503.461C308.599 504.979 310.77 507.149 312.289 508.283C314.99 510.3 316.125 510.345 363.727 510.345C411.995 510.345 412.459 510.326 419.093 508.033C437.28 501.75 452.031 485.28 455.806 467.046C456.549 463.458 456.903 435.921 456.903 381.796V301.845H463.693C482.498 301.845 498.889 291.817 506.973 275.366C510.367 268.46 510.403 268.246 510.403 254.845C510.403 232.039 521.901 245.58 393.535 117.213C265.898 -10.4236 278.685 0.541387 256.932 0.0793869C245.568 -0.162613 243.86 0.039387 238.568 2.25239ZM263.337 30.8234C269.161 33.6564 478.25 242.949 480.365 248.063C482.455 253.116 482.297 257.4 479.832 262.492C476.118 270.163 473.039 271.266 453.723 271.845C435.568 272.389 434.28 272.781 429.465 279.229C427.427 281.958 427.397 283.036 426.903 372.668L426.403 463.345L423.631 468.061C422.106 470.655 419.375 473.909 417.562 475.291C410.6 480.601 408.526 480.845 370.277 480.845H334.903V424.894C334.903 388.183 334.526 367.121 333.806 363.644C329.922 344.883 314.759 328.659 295.403 322.553C288.782 320.465 286.644 320.345 255.903 320.345C220.111 320.345 218.324 320.583 205.455 327.064C192.845 333.415 180.987 349.213 178 363.644C177.28 367.121 176.903 388.183 176.903 424.894V480.845H141.529C103.28 480.845 101.206 480.601 94.2444 475.291C92.4314 473.909 89.7004 470.655 88.1754 468.061L85.4034 463.345L84.9034 372.668C84.4094 283.037 84.3794 281.959 82.3414 279.23C77.5264 272.781 76.2384 272.389 58.0834 271.845C38.7674 271.266 35.6884 270.163 31.9744 262.492C29.5094 257.4 29.3514 253.116 31.4414 248.063C33.5104 243.061 242.6 33.7114 248.403 30.8314C253.476 28.3144 258.175 28.3124 263.337 30.8234Z" fill="black"/>
</svg>
